<svg width="40" height="40" viewBox="0 0 22 22" fill="none" xmlns="http://www.w3.org/2000/svg">
<path d="M10.5881 0C4.74348 0 0 4.79111 0 10.6944C0 16.5978 4.74348 21.3889 10.5881 21.3889C16.4328 21.3889 21.1762 16.5978 21.1762 10.6944C21.1762 4.79111 16.4328 0 10.5881 0ZM15.501 7.27222C15.3422 8.96195 14.654 13.0686 14.3045 14.9615C14.1563 15.7636 13.8598 16.031 13.5846 16.0631C12.9704 16.1165 12.5046 15.6567 11.9116 15.261C10.9799 14.6407 10.4505 14.2557 9.55048 13.6568C8.50226 12.9617 9.1799 12.5767 9.78342 11.9564C9.94224 11.796 12.6528 9.30417 12.7057 9.07958C12.7131 9.04557 12.7121 9.01025 12.7029 8.97671C12.6937 8.94316 12.6765 8.9124 12.6528 8.88708C12.5893 8.83361 12.5046 8.855 12.4305 8.8657C12.3352 8.88708 10.8528 9.88167 7.96227 11.8494C7.53874 12.1382 7.15757 12.2879 6.81875 12.2772C6.43758 12.2665 5.71758 12.0633 5.17759 11.8815C4.51054 11.6676 3.99172 11.55 4.03407 11.1757C4.05525 10.9832 4.31995 10.7907 4.81759 10.5875C7.90932 9.22931 9.96342 8.33097 10.9905 7.9032C13.934 6.66264 14.5375 6.44875 14.9398 6.44875C15.0245 6.44875 15.2257 6.47014 15.3528 6.57708C15.4587 6.66264 15.4904 6.78028 15.501 6.86583C15.4904 6.93 15.5116 7.1225 15.501 7.27222Z" fill="#0D69E1"/>
</svg>
