<svg width="40" height="40" viewBox="0 0 22 22" fill="none" xmlns="http://www.w3.org/2000/svg">
<path fill-rule="evenodd" clip-rule="evenodd" d="M10.8134 21.4634C16.7855 21.4634 21.6268 16.6587 21.6268 10.7317C21.6268 4.80475 16.7855 0 10.8134 0C4.84132 0 0 4.80475 0 10.7317C0 16.6587 4.84132 21.4634 10.8134 21.4634ZM13.5909 4.4662C14.3772 4.79014 15.0906 5.26621 15.6896 5.86666C16.9113 7.07912 17.5842 8.69357 17.5842 10.4118C17.5842 13.9519 14.6769 16.8371 11.1099 16.8371C10.0254 16.8371 8.96049 16.5648 8.01319 16.0526L4.58332 16.9474L5.49795 13.6147C4.93611 12.6422 4.63558 11.5399 4.63558 10.4053C4.63558 6.86515 7.54281 3.97989 11.1099 3.97989C11.9612 3.97694 12.8046 4.14226 13.5909 4.4662ZM8.36598 15.0022C9.19568 15.4885 10.143 15.7479 11.1099 15.7479C14.0759 15.7479 16.4932 13.3554 16.4801 10.4118C16.4827 9.70964 16.3449 9.01399 16.0746 8.36512C15.8044 7.71625 15.407 7.12707 14.9056 6.63174C13.893 5.62027 12.5406 5.06267 11.1033 5.06267C8.13732 5.06267 5.72008 7.46166 5.72008 10.4053C5.72082 11.4098 6.00606 12.3938 6.54325 13.2452L6.67391 13.4461L6.13166 15.4172L8.16999 14.8855L8.36598 15.0022ZM13.8477 11.6502C13.9448 11.6971 14.0228 11.7348 14.0628 11.7539C14.0951 11.7693 14.1249 11.7829 14.1522 11.7954C14.2629 11.846 14.3332 11.8782 14.3699 11.9354C14.4156 12.0068 14.4156 12.3245 14.2784 12.7005C14.1478 13.0766 13.501 13.4202 13.1874 13.4656C12.9065 13.5045 12.5537 13.524 12.1682 13.4008C11.9331 13.3294 11.6325 13.2322 11.2471 13.0636C9.6981 12.4003 8.65668 10.8896 8.4996 10.6618C8.49238 10.6513 8.48702 10.6435 8.48358 10.6387L8.4823 10.637C8.39911 10.5269 7.82373 9.76573 7.82373 8.97885C7.82373 8.24904 8.17965 7.86142 8.34761 7.6785C8.3617 7.66316 8.37446 7.64926 8.38558 7.63672C8.53584 7.47462 8.7057 7.43572 8.81676 7.43572H9.13035C9.1417 7.43647 9.15357 7.43661 9.1659 7.43676C9.26003 7.43789 9.38067 7.43934 9.49621 7.71452C9.62687 8.03871 9.95352 8.82973 9.99272 8.90753C10.0319 8.98534 10.0581 9.07611 10.0058 9.18633C10.0013 9.19518 9.99701 9.2038 9.9928 9.21221C9.94762 9.30238 9.91417 9.36913 9.84246 9.45216C9.81743 9.48114 9.79107 9.51277 9.76444 9.54471C9.70766 9.61283 9.64966 9.68241 9.60074 9.73096C9.51581 9.81525 9.43741 9.89954 9.52887 10.0616C9.62687 10.2237 9.94699 10.7489 10.4304 11.1768C10.9555 11.6425 11.4137 11.838 11.6377 11.9335C11.6756 11.9497 11.7068 11.9631 11.7305 11.9743C11.8939 12.0586 11.9918 12.0457 12.0833 11.9354C12.1748 11.8317 12.4818 11.4686 12.5929 11.3065C12.704 11.1509 12.8085 11.1768 12.9587 11.2287C13.0673 11.2728 13.5483 11.5054 13.8477 11.6502Z" fill="#0D69E1"/>
</svg>
